<svg width="25" height="24" viewBox="0 0 25 24" fill="none" xmlns="http://www.w3.org/2000/svg">
<path d="M14.7959 4.45412L21.5459 11.2041C21.6508 11.3086 21.734 11.4328 21.7908 11.5696C21.8476 11.7063 21.8768 11.8529 21.8768 12.001C21.8768 12.1491 21.8476 12.2957 21.7908 12.4324C21.734 12.5692 21.6508 12.6934 21.5459 12.7979L14.7959 19.5479C14.5846 19.7592 14.2979 19.8779 13.9991 19.8779C13.7002 19.8779 13.4135 19.7592 13.2022 19.5479C12.9908 19.3365 12.8721 19.0499 12.8721 18.751C12.8721 18.4521 12.9908 18.1655 13.2022 17.9541L18.0313 13.1251L4.25 13.1251C3.95163 13.1251 3.66548 13.0065 3.4545 12.7956C3.24353 12.5846 3.125 12.2984 3.125 12.0001C3.125 11.7017 3.24353 11.4155 3.45451 11.2046C3.66548 10.9936 3.95163 10.8751 4.25 10.8751L18.0313 10.8751L13.2013 6.046C12.9899 5.83465 12.8712 5.54801 12.8712 5.24912C12.8712 4.95024 12.9899 4.66359 13.2013 4.45225C13.4126 4.2409 13.6992 4.12217 13.9981 4.12217C14.297 4.12217 14.5837 4.2409 14.795 4.45225L14.7959 4.45412Z" fill="white"/>
</svg>
