<svg width="25" height="12" viewBox="0 0 25 12" fill="none" xmlns="http://www.w3.org/2000/svg">
<path opacity="0.35" d="M3.16667 0.833313H19.8333C21.03 0.833313 22 1.80336 22 2.99998V8.99998C22 10.1966 21.03 11.1666 19.8333 11.1666H3.16667C1.97005 11.1666 1 10.1966 1 8.99998V2.99998C1 1.80336 1.97005 0.833313 3.16667 0.833313Z" stroke="black"/>
<path opacity="0.4" d="M23.5 4V8C24.3047 7.66122 24.828 6.87313 24.828 6C24.828 5.12687 24.3047 4.33878 23.5 4" fill="black"/>
<path d="M2.5 3.66665C2.5 2.93027 3.09695 2.33331 3.83333 2.33331H19.1667C19.903 2.33331 20.5 2.93027 20.5 3.66665V8.33331C20.5 9.06969 19.903 9.66665 19.1667 9.66665H3.83333C3.09695 9.66665 2.5 9.06969 2.5 8.33331V3.66665Z" fill="black"/>
</svg>
