<svg width="20" height="20" viewBox="0 0 20 20" fill="none" xmlns="http://www.w3.org/2000/svg">
<path fill-rule="evenodd" clip-rule="evenodd" d="M7.5 2.49996C7.5 2.03972 7.1269 1.66663 6.66667 1.66663C6.20643 1.66663 5.83333 2.03972 5.83333 2.49996H5C3.61929 2.49996 2.5 3.61925 2.5 4.99996V15.8333C2.5 17.214 3.61929 18.3333 5 18.3333H15C16.3807 18.3333 17.5 17.214 17.5 15.8333V4.99996C17.5 3.61925 16.3807 2.49996 15 2.49996H14.1667C14.1667 2.03972 13.7936 1.66663 13.3333 1.66663C12.8731 1.66663 12.5 2.03972 12.5 2.49996H7.5ZM15.8333 5.83329V4.99996C15.8333 4.53972 15.4602 4.16663 15 4.16663H14.1667C14.1667 4.62686 13.7936 4.99996 13.3333 4.99996C12.8731 4.99996 12.5 4.62686 12.5 4.16663H7.5C7.5 4.62686 7.1269 4.99996 6.66667 4.99996C6.20643 4.99996 5.83333 4.62686 5.83333 4.16663H5C4.53976 4.16663 4.16667 4.53972 4.16667 4.99996V5.83329H15.8333ZM4.16667 7.49996V15.8333C4.16667 16.2935 4.53976 16.6666 5 16.6666H15C15.4602 16.6666 15.8333 16.2935 15.8333 15.8333V7.49996H4.16667Z" fill="#667085"/>
</svg>
