<svg width="20" height="20" viewBox="0 0 20 20" fill="none" xmlns="http://www.w3.org/2000/svg">
<path fill-rule="evenodd" clip-rule="evenodd" d="M10.0002 4.16675C15.1085 4.16675 17.5258 7.59172 18.3768 9.1929C18.6477 9.70275 18.6477 10.2974 18.3768 10.8073C17.5258 12.4084 15.1085 15.8334 10.0002 15.8334C4.89188 15.8334 2.4746 12.4084 1.62363 10.8073C1.35267 10.2974 1.35267 9.70274 1.62363 9.1929C2.4746 7.59172 4.89188 4.16675 10.0002 4.16675ZM5.69716 7.06483C4.31361 7.98153 3.50572 9.20294 3.09536 9.97507C3.09078 9.98369 3.08889 9.98967 3.08807 9.99295C3.08724 9.9963 3.08708 10.0001 3.08708 10.0001C3.08708 10.0001 3.08724 10.0039 3.08807 10.0072C3.08889 10.0105 3.09078 10.0165 3.09536 10.0251C3.50572 10.7972 4.31361 12.0186 5.69716 12.9353C5.12594 12.0995 4.79188 11.0888 4.79188 10.0001C4.79188 8.91133 5.12594 7.90061 5.69716 7.06483ZM14.3033 12.9353C15.6868 12.0186 16.4947 10.7972 16.905 10.0251C16.9096 10.0165 16.9115 10.0105 16.9123 10.0072C16.9129 10.005 16.9133 10.002 16.9133 10.002L16.9133 10.0001L16.913 9.99641L16.9123 9.99295C16.9115 9.98967 16.9096 9.98369 16.905 9.97507C16.4947 9.20294 15.6868 7.98154 14.3033 7.06484C14.8745 7.90062 15.2085 8.91134 15.2085 10.0001C15.2085 11.0888 14.8745 12.0995 14.3033 12.9353ZM6.45854 10.0001C6.45854 8.04407 8.0442 6.45841 10.0002 6.45841C11.9562 6.45841 13.5419 8.04407 13.5419 10.0001C13.5419 11.9561 11.9562 13.5417 10.0002 13.5417C8.0442 13.5417 6.45854 11.9561 6.45854 10.0001Z" fill="#667085"/>
</svg>
