<svg width="20" height="20" viewBox="0 0 20 20" fill="none" xmlns="http://www.w3.org/2000/svg">
<path fill-rule="evenodd" clip-rule="evenodd" d="M10.0002 4.16667C15.1085 4.16667 17.5258 7.59164 18.3768 9.19282C18.6477 9.70266 18.6477 10.2973 18.3768 10.8072C17.5258 12.4084 15.1085 15.8333 10.0002 15.8333C4.89188 15.8333 2.4746 12.4084 1.62363 10.8072C1.35267 10.2973 1.35267 9.70266 1.62363 9.19281C2.4746 7.59164 4.89188 4.16667 10.0002 4.16667ZM5.69716 7.06474C4.31361 7.98145 3.50572 9.20285 3.09536 9.97498C3.09078 9.98361 3.08889 9.98959 3.08807 9.99287C3.08724 9.99621 3.08708 10 3.08708 10C3.08708 10 3.08724 10.0038 3.08807 10.0071C3.08889 10.0104 3.09078 10.0164 3.09536 10.025C3.50572 10.7971 4.31361 12.0185 5.69716 12.9353C5.12594 12.0995 4.79188 11.0887 4.79188 10C4.79188 8.91125 5.12594 7.90053 5.69716 7.06474ZM14.3033 12.9352C15.6868 12.0185 16.4947 10.7971 16.905 10.025C16.9096 10.0164 16.9115 10.0104 16.9123 10.0071C16.9129 10.005 16.9133 10.0019 16.9133 10.0019L16.9133 10L16.913 9.99633L16.9123 9.99287C16.9115 9.98959 16.9096 9.98361 16.905 9.97498C16.4947 9.20286 15.6868 7.98146 14.3033 7.06475C14.8745 7.90054 15.2085 8.91126 15.2085 10C15.2085 11.0887 14.8745 12.0995 14.3033 12.9352ZM6.45854 10C6.45854 8.04399 8.0442 6.45833 10.0002 6.45833C11.9562 6.45833 13.5419 8.04399 13.5419 10C13.5419 11.956 11.9562 13.5417 10.0002 13.5417C8.0442 13.5417 6.45854 11.956 6.45854 10Z" fill="#667085"/>
</svg>
