<svg width="24" height="24" viewBox="0 0 24 24" fill="none" xmlns="http://www.w3.org/2000/svg">
<path d="M23.0766 12.4857L13.7653 3.17443C13.5917 2.99968 13.3851 2.86114 13.1576 2.76683C12.93 2.67253 12.686 2.62433 12.4397 2.62505H3.75001C3.45164 2.62505 3.16549 2.74358 2.95451 2.95456C2.74353 3.16554 2.62501 3.45169 2.62501 3.75005V12.4397C2.62429 12.6861 2.67248 12.9301 2.76679 13.1576C2.86109 13.3852 2.99963 13.5918 3.17438 13.7654L12.4856 23.0766C12.8372 23.4281 13.3141 23.6256 13.8113 23.6256C14.3084 23.6256 14.7853 23.4281 15.1369 23.0766L23.0766 15.1369C23.4281 14.7853 23.6255 14.3085 23.6255 13.8113C23.6255 13.3141 23.4281 12.8373 23.0766 12.4857ZM13.8113 21.2204L4.87501 12.2813V4.87505H12.2813L21.2175 13.8113L13.8113 21.2204ZM9.37501 7.87505C9.37501 8.17173 9.28703 8.46174 9.12221 8.70841C8.95739 8.95508 8.72312 9.14734 8.44903 9.26087C8.17494 9.3744 7.87334 9.40411 7.58237 9.34623C7.2914 9.28835 7.02413 9.14549 6.81435 8.93571C6.60457 8.72593 6.46171 8.45866 6.40383 8.16769C6.34595 7.87672 6.37566 7.57512 6.48919 7.30103C6.60272 7.02694 6.79498 6.79267 7.04165 6.62785C7.28833 6.46303 7.57834 6.37505 7.87501 6.37505C8.27283 6.37505 8.65436 6.53309 8.93567 6.81439C9.21697 7.0957 9.37501 7.47723 9.37501 7.87505Z" fill="black" fill-opacity="0.4"/>
</svg>
