<svg width="24" height="24" viewBox="0 0 24 24" fill="none" xmlns="http://www.w3.org/2000/svg">
<path d="M20.25 4.50021H16.5V3.75021C16.5 3.15348 16.2629 2.58118 15.841 2.15922C15.419 1.73727 14.8467 1.50021 14.25 1.50021H9.75C9.15326 1.50021 8.58097 1.73727 8.15901 2.15922C7.73705 2.58118 7.5 3.15348 7.5 3.75021V4.50021H3.75C3.55109 4.50021 3.36032 4.57923 3.21967 4.71988C3.07902 4.86054 3 5.0513 3 5.25021C3 5.44913 3.07902 5.63989 3.21967 5.78054C3.36032 5.9212 3.55109 6.00021 3.75 6.00021H4.5V19.5002C4.5 19.898 4.65804 20.2796 4.93934 20.5609C5.22064 20.8422 5.60218 21.0002 6 21.0002H18C18.3978 21.0002 18.7794 20.8422 19.0607 20.5609C19.342 20.2796 19.5 19.898 19.5 19.5002V6.00021H20.25C20.4489 6.00021 20.6397 5.9212 20.7803 5.78054C20.921 5.63989 21 5.44913 21 5.25021C21 5.0513 20.921 4.86054 20.7803 4.71988C20.6397 4.57923 20.4489 4.50021 20.25 4.50021ZM10.5 15.7502C10.5 15.9491 10.421 16.1399 10.2803 16.2805C10.1397 16.4212 9.94891 16.5002 9.75 16.5002C9.55109 16.5002 9.36032 16.4212 9.21967 16.2805C9.07902 16.1399 9 15.9491 9 15.7502V9.75021C9 9.5513 9.07902 9.36054 9.21967 9.21988C9.36032 9.07923 9.55109 9.00021 9.75 9.00021C9.94891 9.00021 10.1397 9.07923 10.2803 9.21988C10.421 9.36054 10.5 9.5513 10.5 9.75021V15.7502ZM15 15.7502C15 15.9491 14.921 16.1399 14.7803 16.2805C14.6397 16.4212 14.4489 16.5002 14.25 16.5002C14.0511 16.5002 13.8603 16.4212 13.7197 16.2805C13.579 16.1399 13.5 15.9491 13.5 15.7502V9.75021C13.5 9.5513 13.579 9.36054 13.7197 9.21988C13.8603 9.07923 14.0511 9.00021 14.25 9.00021C14.4489 9.00021 14.6397 9.07923 14.7803 9.21988C14.921 9.36054 15 9.5513 15 9.75021V15.7502ZM15 4.50021H9V3.75021C9 3.5513 9.07902 3.36054 9.21967 3.21988C9.36032 3.07923 9.55109 3.00021 9.75 3.00021H14.25C14.4489 3.00021 14.6397 3.07923 14.7803 3.21988C14.921 3.36054 15 3.5513 15 3.75021V4.50021Z" fill="#FF3333"/>
</svg>
