<svg width="22" height="67" viewBox="0 0 22 67" fill="none" xmlns="http://www.w3.org/2000/svg">
<g clip-path="url(#clip0_393_45771)">
<path d="M10.9375 54.5C14.3896 54.5 17.1875 51.7021 17.1875 48.25C17.1875 44.7979 14.3896 42 10.9375 42C7.48535 42 4.6875 44.7979 4.6875 48.25C4.6875 51.7021 7.48535 54.5 10.9375 54.5ZM15.3125 56.0625H14.4971C13.4131 56.5605 12.207 56.8438 10.9375 56.8438C9.66797 56.8438 8.4668 56.5605 7.37793 56.0625H6.5625C2.93945 56.0625 0 59.002 0 62.625V64.6562C0 65.9502 1.0498 67 2.34375 67H19.5312C20.8252 67 21.875 65.9502 21.875 64.6562V62.625C21.875 59.002 18.9355 56.0625 15.3125 56.0625Z" fill="black"/>
</g>
<defs>
<clipPath id="clip0_393_45771">
<rect width="21.875" height="67" fill="white"/>
</clipPath>
</defs>
</svg>
