<svg width="22" height="48" viewBox="0 0 22 48" fill="none" xmlns="http://www.w3.org/2000/svg">
<g clip-path="url(#clip0_393_38997)">
<path d="M10.9375 35.5C14.3896 35.5 17.1875 32.7021 17.1875 29.25C17.1875 25.7979 14.3896 23 10.9375 23C7.48535 23 4.6875 25.7979 4.6875 29.25C4.6875 32.7021 7.48535 35.5 10.9375 35.5ZM15.3125 37.0625H14.4971C13.4131 37.5605 12.207 37.8438 10.9375 37.8438C9.66797 37.8438 8.4668 37.5605 7.37793 37.0625H6.5625C2.93945 37.0625 0 40.002 0 43.625V45.6562C0 46.9502 1.0498 48 2.34375 48H19.5312C20.8252 48 21.875 46.9502 21.875 45.6562V43.625C21.875 40.002 18.9355 37.0625 15.3125 37.0625Z" fill="black"/>
</g>
<defs>
<clipPath id="clip0_393_38997">
<rect width="21.875" height="48" fill="white"/>
</clipPath>
</defs>
</svg>
