<svg width="25" height="24" viewBox="0 0 25 24" fill="none" xmlns="http://www.w3.org/2000/svg">
<path d="M21.0693 4.125H3.06934C2.77097 4.125 2.48482 4.24353 2.27384 4.4545C2.06286 4.66548 1.94434 4.95163 1.94434 5.25V18C1.94434 18.4973 2.14188 18.9742 2.49351 19.3258C2.84514 19.6775 3.32205 19.875 3.81934 19.875H20.3193C20.8166 19.875 21.2935 19.6775 21.6452 19.3258C21.9968 18.9742 22.1943 18.4973 22.1943 18V5.25C22.1943 4.95163 22.0758 4.66548 21.8648 4.4545C21.6539 4.24353 21.3677 4.125 21.0693 4.125ZM12.0693 11.9738L5.96152 6.375H18.1771L12.0693 11.9738ZM8.7684 12L4.19434 16.1925V7.8075L8.7684 12ZM10.4334 13.5262L11.309 14.3297C11.5165 14.52 11.7878 14.6255 12.0693 14.6255C12.3509 14.6255 12.6222 14.52 12.8296 14.3297L13.7053 13.5262L18.1771 17.625H5.96152L10.4334 13.5262ZM15.3703 12L19.9443 7.8075V16.1925L15.3703 12Z" fill="black" fill-opacity="0.4"/>
</svg>
