<svg width="25" height="49" viewBox="0 0 25 49" fill="none" xmlns="http://www.w3.org/2000/svg">
<g clip-path="url(#clip0_393_38995)">
<path d="M22.9219 39.0781L24.9737 30.0503C25.1218 29.3985 24.6263 28.7778 23.9579 28.7778H6.91007L6.51224 26.8329C6.41311 26.3481 5.98654 26 5.49171 26H1.04167C0.466363 26 0 26.4664 0 27.0417V27.7361C0 28.3114 0.466363 28.7778 1.04167 28.7778H4.07478L7.12374 43.6838C6.39431 44.1033 5.90278 44.8898 5.90278 45.7917C5.90278 47.134 6.99097 48.2222 8.33333 48.2222C9.67569 48.2222 10.7639 47.134 10.7639 45.7917C10.7639 45.1114 10.4841 44.4967 10.0337 44.0556H19.1329C18.6826 44.4967 18.4028 45.1114 18.4028 45.7917C18.4028 47.134 19.491 48.2222 20.8333 48.2222C22.1757 48.2222 23.2639 47.134 23.2639 45.7917C23.2639 44.8293 22.7045 43.9977 21.8933 43.6039L22.1327 42.5503C22.2809 41.8985 21.7854 41.2778 21.117 41.2778H9.46688L9.18281 39.8889H21.9061C22.3925 39.8889 22.8141 39.5523 22.9219 39.0781Z" fill="black"/>
</g>
<defs>
<clipPath id="clip0_393_38995">
<rect width="25" height="48.2222" fill="white"/>
</clipPath>
</defs>
</svg>
