<svg width="25" height="68" viewBox="0 0 25 68" fill="none" xmlns="http://www.w3.org/2000/svg">
<g clip-path="url(#clip0_393_45769)">
<path d="M22.9219 58.0781L24.9737 49.0503C25.1218 48.3985 24.6263 47.7778 23.9579 47.7778H6.91007L6.51224 45.8329C6.41311 45.3481 5.98655 45 5.49171 45H1.04167C0.466363 45 0 45.4664 0 46.0417V46.7361C0 47.3114 0.466363 47.7778 1.04167 47.7778H4.07478L7.12374 62.6838C6.39431 63.1033 5.90278 63.8898 5.90278 64.7917C5.90278 66.134 6.99097 67.2222 8.33333 67.2222C9.67569 67.2222 10.7639 66.134 10.7639 64.7917C10.7639 64.1114 10.4841 63.4967 10.0337 63.0556H19.1329C18.6826 63.4967 18.4028 64.1114 18.4028 64.7917C18.4028 66.134 19.491 67.2222 20.8333 67.2222C22.1757 67.2222 23.2639 66.134 23.2639 64.7917C23.2639 63.8293 22.7045 62.9977 21.8933 62.6039L22.1327 61.5503C22.2809 60.8985 21.7854 60.2778 21.117 60.2778H9.46688L9.18281 58.8889H21.9061C22.3925 58.8889 22.8141 58.5523 22.9219 58.0781Z" fill="black"/>
</g>
<defs>
<clipPath id="clip0_393_45769">
<rect width="25" height="67.2222" fill="white"/>
</clipPath>
</defs>
</svg>
