<svg width="288" height="45" viewBox="0 0 288 45" fill="none" xmlns="http://www.w3.org/2000/svg">
<path d="M24.311 25.2392C24.311 31.4697 19.1177 36.5653 12.6555 36.5653C6.19332 36.5653 1 31.4697 1 25.2392C1 19.0086 6.19332 13.9131 12.6555 13.9131C19.1177 13.9131 24.311 19.0086 24.311 25.2392Z" stroke="#A1A111" stroke-width="2"/>
<path d="M286.225 25.2392C286.225 31.5115 281.236 36.5653 275.12 36.5653C269.003 36.5653 264.014 31.5115 264.014 25.2392C264.014 18.9668 269.003 13.9131 275.12 13.9131C281.236 13.9131 286.225 18.9668 286.225 25.2392Z" stroke="#A1A111" stroke-width="2"/>
<path d="M18.8087 25.2391C18.8087 28.1587 16.1527 30.6956 12.6556 30.6956C9.15843 30.6956 6.50244 28.1587 6.50244 25.2391C6.50244 22.3195 9.15843 19.7826 12.6556 19.7826C16.1527 19.7826 18.8087 22.3195 18.8087 25.2391Z" fill="black" stroke="black" stroke-width="2"/>
</svg>
