<svg width="23" height="23" viewBox="0 0 23 23" fill="none" xmlns="http://www.w3.org/2000/svg">
<path d="M20.1457 8.4193C20.0881 8.24949 19.9819 8.10028 19.8404 7.99009C19.699 7.8799 19.5283 7.81356 19.3495 7.79925L14.1204 7.38374L11.8576 2.37473C11.7855 2.2134 11.6683 2.07637 11.5201 1.98019C11.3719 1.884 11.199 1.83277 11.0223 1.83267C10.8456 1.83258 10.6726 1.88362 10.5243 1.97964C10.376 2.07566 10.2586 2.21256 10.1864 2.37381L7.92356 7.38374L2.69441 7.79925C2.51871 7.81317 2.35075 7.87741 2.21062 7.98428C2.07048 8.09116 1.9641 8.23615 1.9042 8.4019C1.84431 8.56765 1.83343 8.74715 1.87288 8.91892C1.91233 9.09069 2.00043 9.24746 2.12664 9.37047L5.99095 13.1376L4.62427 19.0555C4.58277 19.2347 4.59607 19.4222 4.66244 19.5936C4.72881 19.7651 4.8452 19.9127 4.99648 20.0172C5.14777 20.1217 5.32698 20.1784 5.51085 20.1798C5.69472 20.1812 5.87477 20.1273 6.02763 20.0251L11.022 16.6955L16.0163 20.0251C16.1726 20.1288 16.3568 20.1822 16.5443 20.1781C16.7318 20.174 16.9135 20.1125 17.0651 20.0021C17.2166 19.8916 17.3307 19.7373 17.392 19.5601C17.4532 19.3828 17.4587 19.1911 17.4078 19.0106L15.7301 13.1403L19.8907 9.39616C20.1631 9.15034 20.2631 8.76693 20.1457 8.4193Z" fill="#F3CD03"/>
</svg>
