<svg width="23" height="23" viewBox="0 0 23 23" fill="none" xmlns="http://www.w3.org/2000/svg">
<path d="M6.0319 13.1376L4.66522 19.0556C4.6229 19.2348 4.63561 19.4226 4.70168 19.5945C4.76775 19.7664 4.88411 19.9143 5.03557 20.019C5.18703 20.1237 5.36655 20.1803 5.55068 20.1814C5.7348 20.1825 5.91498 20.1281 6.06767 20.0252L11.062 16.6956L16.0564 20.0252C16.2126 20.1289 16.3968 20.1823 16.5843 20.1782C16.7718 20.1741 16.9536 20.1126 17.1051 20.0022C17.2567 19.8917 17.3707 19.7374 17.432 19.5602C17.4933 19.3829 17.4988 19.1912 17.4478 19.0107L15.7702 13.1404L19.9308 9.39625C20.064 9.27626 20.1592 9.11985 20.2045 8.94635C20.2498 8.77286 20.2432 8.58989 20.1856 8.42007C20.1281 8.25026 20.022 8.10104 19.8805 7.99088C19.739 7.88072 19.5683 7.81445 19.3896 7.80026L14.1604 7.38383L11.8976 2.37482C11.8255 2.21353 11.7082 2.07657 11.5599 1.98046C11.4116 1.88436 11.2387 1.83322 11.062 1.83322C10.8853 1.83322 10.7124 1.88436 10.5641 1.98046C10.4159 2.07657 10.2986 2.21353 10.2264 2.37482L7.9636 7.38383L2.73445 7.79934C2.55875 7.81326 2.39079 7.8775 2.25065 7.98438C2.11052 8.09125 2.00414 8.23624 1.94424 8.40199C1.88435 8.56774 1.87347 8.74724 1.91292 8.91901C1.95237 9.09078 2.04047 9.24755 2.16668 9.37056L6.0319 13.1376ZM8.64877 9.16969C8.81249 9.15679 8.96973 9.10009 9.104 9.00552C9.23827 8.91095 9.34462 8.782 9.41191 8.63219L11.062 4.98068L12.7121 8.63219C12.7794 8.782 12.8858 8.91095 13.02 9.00552C13.1543 9.10009 13.3115 9.15679 13.4753 9.16969L17.1185 9.45862L14.1182 12.159C13.8577 12.3938 13.7541 12.7552 13.8495 13.0927L14.9988 17.1148L11.572 14.8299C11.4216 14.729 11.2445 14.6751 11.0634 14.6751C10.8822 14.6751 10.7052 14.729 10.5548 14.8299L6.9739 17.2175L7.937 13.0478C7.97231 12.8944 7.96757 12.7345 7.92323 12.5835C7.8789 12.4325 7.79646 12.2955 7.68384 12.1856L4.89728 9.46871L8.64877 9.16969Z" fill="#F3CD03"/>
</svg>
