<svg width="23" height="23" viewBox="0 0 23 23" fill="none" xmlns="http://www.w3.org/2000/svg">
<path d="M20.1569 8.41939C20.0993 8.24958 19.9932 8.10037 19.8517 7.99018C19.7102 7.87999 19.5395 7.81365 19.3608 7.79934L14.1316 7.38383L11.8688 2.37482C11.7967 2.21349 11.6795 2.07646 11.5313 1.98028C11.3831 1.88409 11.2102 1.83286 11.0335 1.83276C10.8568 1.83267 10.6839 1.88371 10.5355 1.97973C10.3872 2.07575 10.2698 2.21265 10.1976 2.3739L7.93479 7.38383L2.70564 7.79934C2.52995 7.81326 2.36198 7.8775 2.22185 7.98438C2.08171 8.09125 1.97533 8.23624 1.91543 8.40199C1.85554 8.56774 1.84466 8.74724 1.88411 8.91901C1.92356 9.09078 2.01166 9.24755 2.13787 9.37056L6.00218 13.1376L4.6355 19.0556C4.594 19.2348 4.6073 19.4222 4.67367 19.5937C4.74004 19.7652 4.85643 19.9128 5.00771 20.0173C5.159 20.1218 5.33821 20.1785 5.52208 20.1799C5.70595 20.1813 5.886 20.1274 6.03887 20.0252L11.0332 16.6956L16.0275 20.0252C16.1838 20.1289 16.368 20.1823 16.5555 20.1782C16.743 20.1741 16.9248 20.1126 17.0763 20.0022C17.2278 19.8917 17.3419 19.7374 17.4032 19.5602C17.4644 19.3829 17.47 19.1912 17.419 19.0107L15.7414 13.1404L19.9019 9.39625C20.1744 9.15043 20.2743 8.76702 20.1569 8.41939V8.41939Z" fill="#F3CD03"/>
</svg>
