<svg width="23" height="23" viewBox="0 0 23 23" fill="none" xmlns="http://www.w3.org/2000/svg">
<path d="M20.1311 8.4193C20.0734 8.24949 19.9673 8.10028 19.8258 7.99009C19.6843 7.8799 19.5137 7.81356 19.3349 7.79925L14.1057 7.38374L11.8429 2.37473C11.7709 2.2134 11.6536 2.07637 11.5054 1.98019C11.3572 1.884 11.1843 1.83277 11.0076 1.83267C10.8309 1.83258 10.658 1.88362 10.5097 1.97964C10.3613 2.07566 10.244 2.21256 10.1717 2.37381L7.90891 7.38374L2.67976 7.79925C2.50407 7.81317 2.3361 7.87741 2.19597 7.98428C2.05583 8.09116 1.94945 8.23615 1.88955 8.4019C1.82966 8.56765 1.81878 8.74715 1.85823 8.91892C1.89768 9.09069 1.98578 9.24746 2.11199 9.37047L5.9763 13.1376L4.60962 19.0555C4.56812 19.2347 4.58142 19.4222 4.64779 19.5936C4.71417 19.7651 4.83055 19.9127 4.98183 20.0172C5.13312 20.1217 5.31233 20.1784 5.4962 20.1798C5.68008 20.1812 5.86013 20.1273 6.01299 20.0251L11.0073 16.6955L16.0017 20.0251C16.1579 20.1288 16.3422 20.1822 16.5297 20.1781C16.7171 20.174 16.8989 20.1125 17.0504 20.0021C17.202 19.8916 17.316 19.7373 17.3773 19.5601C17.4386 19.3828 17.4441 19.1911 17.3931 19.0106L15.7155 13.1403L19.8761 9.39616C20.1485 9.15034 20.2485 8.76693 20.1311 8.4193Z" fill="#F3CD03"/>
</svg>
