<svg width="23" height="23" viewBox="0 0 23 23" fill="none" xmlns="http://www.w3.org/2000/svg">
<path d="M20.1564 8.4193C20.0988 8.24949 19.9927 8.10028 19.8512 7.99009C19.7097 7.8799 19.539 7.81356 19.3603 7.79925L14.1311 7.38374L11.8683 2.37473C11.7963 2.2134 11.679 2.07637 11.5308 1.98019C11.3826 1.884 11.2097 1.83277 11.033 1.83267C10.8563 1.83258 10.6834 1.88362 10.535 1.97964C10.3867 2.07566 10.2694 2.21256 10.1971 2.37381L7.9343 7.38374L2.70515 7.79925C2.52946 7.81317 2.3615 7.87741 2.22136 7.98428C2.08122 8.09116 1.97484 8.23615 1.91494 8.4019C1.85505 8.56765 1.84418 8.74715 1.88362 8.91892C1.92307 9.09069 2.01117 9.24746 2.13738 9.37047L6.00169 13.1376L4.63501 19.0555C4.59351 19.2347 4.60681 19.4222 4.67318 19.5936C4.73956 19.7651 4.85594 19.9127 5.00722 20.0172C5.15851 20.1217 5.33772 20.1784 5.52159 20.1798C5.70547 20.1812 5.88552 20.1273 6.03838 20.0251L11.0327 16.6955L16.0271 20.0251C16.1833 20.1288 16.3676 20.1822 16.555 20.1781C16.7425 20.174 16.9243 20.1125 17.0758 20.0021C17.2274 19.8916 17.3414 19.7373 17.4027 19.5601C17.464 19.3828 17.4695 19.1911 17.4185 19.0106L15.7409 13.1403L19.9015 9.39616C20.1739 9.15034 20.2739 8.76693 20.1564 8.4193Z" fill="#F3CD03"/>
</svg>
