<svg width="23" height="23" viewBox="0 0 23 23" fill="none" xmlns="http://www.w3.org/2000/svg">
<path d="M20.1711 8.4193C20.1134 8.24949 20.0073 8.10028 19.8658 7.99009C19.7243 7.8799 19.5537 7.81356 19.3749 7.79925L14.1458 7.38374L11.883 2.37473C11.8109 2.2134 11.6937 2.07637 11.5455 1.98019C11.3972 1.884 11.2244 1.83277 11.0477 1.83267C10.871 1.83258 10.698 1.88362 10.5497 1.97964C10.4014 2.07566 10.284 2.21256 10.2118 2.37381L7.94895 7.38374L2.7198 7.79925C2.54411 7.81317 2.37614 7.87741 2.23601 7.98428C2.09587 8.09116 1.98949 8.23615 1.92959 8.4019C1.8697 8.56765 1.85882 8.74715 1.89827 8.91892C1.93772 9.09069 2.02582 9.24746 2.15203 9.37047L6.01634 13.1376L4.64966 19.0555C4.60816 19.2347 4.62146 19.4222 4.68783 19.5936C4.7542 19.7651 4.87059 19.9127 5.02187 20.0172C5.17316 20.1217 5.35237 20.1784 5.53624 20.1798C5.72011 20.1812 5.90016 20.1273 6.05303 20.0251L11.0474 16.6955L16.0417 20.0251C16.1979 20.1288 16.3822 20.1822 16.5697 20.1781C16.7572 20.174 16.9389 20.1125 17.0905 20.0021C17.242 19.8916 17.3561 19.7373 17.4173 19.5601C17.4786 19.3828 17.4841 19.1911 17.4331 19.0106L15.7555 13.1403L19.9161 9.39616C20.1885 9.15034 20.2885 8.76693 20.1711 8.4193Z" fill="#F3CD03"/>
</svg>
