<svg width="23" height="23" viewBox="0 0 23 23" fill="none" xmlns="http://www.w3.org/2000/svg">
<path d="M20.1706 8.41927C20.113 8.24946 20.0068 8.10025 19.8653 7.99006C19.7239 7.87987 19.5532 7.81353 19.3744 7.79922L14.1453 7.38371L11.8825 2.3747C11.8104 2.21337 11.6932 2.07634 11.545 1.98016C11.3968 1.88397 11.2239 1.83274 11.0472 1.83264C10.8705 1.83254 10.6975 1.88359 10.5492 1.97961C10.4009 2.07563 10.2835 2.21253 10.2113 2.37378L7.94846 7.38371L2.71931 7.79922C2.54362 7.81314 2.37566 7.87738 2.23552 7.98425C2.09538 8.09113 1.989 8.23612 1.9291 8.40187C1.86921 8.56762 1.85834 8.74712 1.89778 8.91889C1.93723 9.09066 2.02533 9.24743 2.15154 9.37044L6.01585 13.1375L4.64917 19.0555C4.60767 19.2347 4.62097 19.4221 4.68734 19.5936C4.75372 19.7651 4.8701 19.9127 5.02138 20.0172C5.17267 20.1217 5.35188 20.1783 5.53575 20.1797C5.71963 20.1811 5.89968 20.1272 6.05254 20.025L11.0469 16.6955L16.0412 20.025C16.1975 20.1288 16.3817 20.1822 16.5692 20.1781C16.7567 20.1739 16.9384 20.1125 17.09 20.002C17.2415 19.8916 17.3556 19.7373 17.4169 19.5601C17.4781 19.3828 17.4836 19.1911 17.4327 19.0106L15.755 13.1403L19.9156 9.39612C20.188 9.15031 20.288 8.7669 20.1706 8.41927V8.41927Z" fill="#F3CD03"/>
</svg>
