<svg width="23" height="23" viewBox="0 0 23 23" fill="none" xmlns="http://www.w3.org/2000/svg">
<path d="M20.1457 8.41939C20.0881 8.24958 19.9819 8.10037 19.8404 7.99018C19.699 7.87999 19.5283 7.81365 19.3495 7.79934L14.1204 7.38383L11.8576 2.37482C11.7855 2.21349 11.6683 2.07646 11.5201 1.98028C11.3719 1.88409 11.199 1.83286 11.0223 1.83276C10.8456 1.83267 10.6726 1.88371 10.5243 1.97973C10.376 2.07575 10.2586 2.21265 10.1864 2.3739L7.92356 7.38383L2.69441 7.79934C2.51871 7.81326 2.35075 7.8775 2.21062 7.98438C2.07048 8.09125 1.9641 8.23624 1.9042 8.40199C1.84431 8.56774 1.83343 8.74724 1.87288 8.91901C1.91233 9.09078 2.00043 9.24755 2.12664 9.37056L5.99095 13.1376L4.62427 19.0556C4.58277 19.2348 4.59607 19.4222 4.66244 19.5937C4.72881 19.7652 4.8452 19.9128 4.99648 20.0173C5.14777 20.1218 5.32698 20.1785 5.51085 20.1799C5.69472 20.1813 5.87477 20.1274 6.02763 20.0252L11.022 16.6956L16.0163 20.0252C16.1726 20.1289 16.3568 20.1823 16.5443 20.1782C16.7318 20.1741 16.9135 20.1126 17.0651 20.0022C17.2166 19.8917 17.3307 19.7374 17.392 19.5602C17.4532 19.3829 17.4587 19.1912 17.4078 19.0107L15.7301 13.1404L19.8907 9.39625C20.1631 9.15043 20.2631 8.76702 20.1457 8.41939V8.41939Z" fill="#F3CD03"/>
</svg>
