<svg width="23" height="23" viewBox="0 0 23 23" fill="none" xmlns="http://www.w3.org/2000/svg">
<path d="M20.1706 8.41939C20.113 8.24958 20.0068 8.10037 19.8653 7.99018C19.7239 7.87999 19.5532 7.81365 19.3744 7.79934L14.1453 7.38383L11.8825 2.37482C11.8104 2.21349 11.6932 2.07646 11.545 1.98028C11.3968 1.88409 11.2239 1.83286 11.0472 1.83276C10.8705 1.83267 10.6975 1.88371 10.5492 1.97973C10.4009 2.07575 10.2835 2.21265 10.2113 2.3739L7.94846 7.38383L2.71931 7.79934C2.54362 7.81326 2.37566 7.8775 2.23552 7.98438C2.09538 8.09125 1.989 8.23624 1.9291 8.40199C1.86921 8.56774 1.85834 8.74724 1.89778 8.91901C1.93723 9.09078 2.02533 9.24755 2.15154 9.37056L6.01585 13.1376L4.64917 19.0556C4.60767 19.2348 4.62097 19.4222 4.68734 19.5937C4.75372 19.7652 4.8701 19.9128 5.02138 20.0173C5.17267 20.1218 5.35188 20.1785 5.53575 20.1799C5.71963 20.1813 5.89968 20.1274 6.05254 20.0252L11.0469 16.6956L16.0412 20.0252C16.1975 20.1289 16.3817 20.1823 16.5692 20.1782C16.7567 20.1741 16.9384 20.1126 17.09 20.0022C17.2415 19.8917 17.3556 19.7374 17.4169 19.5602C17.4781 19.3829 17.4836 19.1912 17.4327 19.0107L15.755 13.1404L19.9156 9.39625C20.188 9.15043 20.288 8.76702 20.1706 8.41939V8.41939Z" fill="#F3CD03"/>
</svg>
