<svg width="23" height="23" viewBox="0 0 23 23" fill="none" xmlns="http://www.w3.org/2000/svg">
<path d="M6.03166 13.1376L4.66498 19.0556C4.62266 19.2348 4.63536 19.4226 4.70143 19.5945C4.7675 19.7663 4.88387 19.9143 5.03533 20.019C5.18679 20.1237 5.36631 20.1803 5.55043 20.1814C5.73456 20.1825 5.91474 20.128 6.06743 20.0251L11.0618 16.6956L16.0561 20.0251C16.2123 20.1289 16.3966 20.1823 16.5841 20.1781C16.7716 20.174 16.9533 20.1126 17.1049 20.0021C17.2564 19.8916 17.3705 19.7374 17.4317 19.5602C17.493 19.3829 17.4985 19.1911 17.4476 19.0107L15.7699 13.1404L19.9305 9.39622C20.0638 9.27623 20.1589 9.11982 20.2042 8.94632C20.2495 8.77283 20.243 8.58986 20.1854 8.42004C20.1278 8.25022 20.0217 8.10101 19.8802 7.99085C19.7388 7.88069 19.5681 7.81442 19.3893 7.80023L14.1602 7.3838L11.8974 2.37479C11.8252 2.2135 11.7079 2.07654 11.5597 1.98043C11.4114 1.88433 11.2385 1.83319 11.0618 1.83319C10.8851 1.83319 10.7122 1.88433 10.5639 1.98043C10.4156 2.07654 10.2983 2.2135 10.2262 2.37479L7.96335 7.3838L2.7342 7.79931C2.55851 7.81323 2.39055 7.87747 2.25041 7.98434C2.11027 8.09122 2.00389 8.23621 1.944 8.40196C1.8841 8.56771 1.87323 8.74721 1.91268 8.91898C1.95212 9.09075 2.04022 9.24752 2.16643 9.37053L6.03166 13.1376V13.1376ZM8.64853 9.16966C8.81225 9.15676 8.96948 9.10005 9.10375 9.00549C9.23802 8.91092 9.34438 8.78197 9.41167 8.63216L11.0618 4.98065L12.7119 8.63216C12.7792 8.78197 12.8855 8.91092 13.0198 9.00549C13.1541 9.10005 13.3113 9.15676 13.475 9.16966L17.1183 9.45859L14.118 12.1589C13.8575 12.3937 13.7539 12.7551 13.8492 13.0927L14.9985 17.1147L11.5718 14.8299C11.4213 14.729 11.2443 14.6751 11.0631 14.6751C10.882 14.6751 10.7049 14.729 10.5545 14.8299L6.97366 17.2175L7.93675 13.0477C7.97207 12.8944 7.96733 12.7345 7.92299 12.5835C7.87866 12.4325 7.79621 12.2954 7.6836 12.1855L4.89704 9.46868L8.64853 9.16966V9.16966Z" fill="#F3CD03"/>
</svg>
