<svg width="23" height="23" viewBox="0 0 23 23" fill="none" xmlns="http://www.w3.org/2000/svg">
<path d="M20.1706 8.41915C20.113 8.24934 20.0068 8.10013 19.8653 7.98994C19.7239 7.87975 19.5532 7.81341 19.3744 7.7991L14.1453 7.38359L11.8825 2.37458C11.8104 2.21324 11.6932 2.07622 11.545 1.98003C11.3968 1.88385 11.2239 1.83262 11.0472 1.83252C10.8705 1.83242 10.6975 1.88347 10.5492 1.97949C10.4009 2.07551 10.2835 2.21241 10.2113 2.37366L7.94846 7.38359L2.71931 7.7991C2.54362 7.81302 2.37566 7.87726 2.23552 7.98413C2.09538 8.09101 1.989 8.236 1.9291 8.40175C1.86921 8.5675 1.85834 8.747 1.89778 8.91877C1.93723 9.09054 2.02533 9.24731 2.15154 9.37032L6.01585 13.1374L4.64917 19.0554C4.60767 19.2345 4.62097 19.422 4.68734 19.5935C4.75372 19.765 4.8701 19.9125 5.02138 20.0171C5.17267 20.1216 5.35188 20.1782 5.53575 20.1796C5.71963 20.181 5.89968 20.1271 6.05254 20.0249L11.0469 16.6954L16.0412 20.0249C16.1975 20.1286 16.3817 20.182 16.5692 20.1779C16.7567 20.1738 16.9384 20.1124 17.09 20.0019C17.2415 19.8914 17.3556 19.7372 17.4169 19.5599C17.4781 19.3827 17.4836 19.1909 17.4327 19.0105L15.755 13.1402L19.9156 9.396C20.188 9.15018 20.288 8.76678 20.1706 8.41915V8.41915Z" fill="#F3CD03"/>
</svg>
