<svg width="20" height="20" viewBox="0 0 20 20" fill="none" xmlns="http://www.w3.org/2000/svg">
<path d="M4.99984 6.66667C4.99984 6.20643 5.37293 5.83333 5.83317 5.83333H14.1665C14.6267 5.83333 14.9998 6.20643 14.9998 6.66667C14.9998 7.1269 14.6267 7.5 14.1665 7.5H5.83317C5.37293 7.5 4.99984 7.1269 4.99984 6.66667Z" fill="#667085"/>
<path d="M4.99984 10C4.99984 9.53976 5.37293 9.16667 5.83317 9.16667H9.99984C10.4601 9.16667 10.8332 9.53976 10.8332 10C10.8332 10.4602 10.4601 10.8333 9.99984 10.8333H5.83317C5.37293 10.8333 4.99984 10.4602 4.99984 10Z" fill="#667085"/>
<path fill-rule="evenodd" clip-rule="evenodd" d="M1.6665 12.0833C1.6665 13.464 2.78579 14.5833 4.1665 14.5833H6.6665V16.8298C6.6665 17.4843 7.38646 17.8834 7.9415 17.5365L12.6665 14.5833H15.8332C17.2139 14.5833 18.3332 13.464 18.3332 12.0833V4.58333C18.3332 3.20262 17.2139 2.08333 15.8332 2.08333H4.1665C2.78579 2.08333 1.6665 3.20262 1.6665 4.58333V12.0833ZM8.33317 15.3263V12.9167H4.1665C3.70627 12.9167 3.33317 12.5436 3.33317 12.0833V4.58333C3.33317 4.1231 3.70627 3.75 4.1665 3.75H15.8332C16.2934 3.75 16.6665 4.1231 16.6665 4.58333V12.0833C16.6665 12.5436 16.2934 12.9167 15.8332 12.9167H12.1885L8.33317 15.3263Z" fill="#667085"/>
</svg>
