<svg width="20" height="20" viewBox="0 0 20 20" fill="none" xmlns="http://www.w3.org/2000/svg">
<path d="M5.00008 6.66659C5.00008 6.20635 5.37318 5.83325 5.83341 5.83325H14.1667C14.627 5.83325 15.0001 6.20635 15.0001 6.66659C15.0001 7.12682 14.627 7.49992 14.1667 7.49992H5.83341C5.37318 7.49992 5.00008 7.12682 5.00008 6.66659Z" fill="#667085"/>
<path d="M5.00008 9.99992C5.00008 9.53968 5.37318 9.16659 5.83341 9.16659H10.0001C10.4603 9.16659 10.8334 9.53968 10.8334 9.99992C10.8334 10.4602 10.4603 10.8333 10.0001 10.8333H5.83341C5.37318 10.8333 5.00008 10.4602 5.00008 9.99992Z" fill="#667085"/>
<path fill-rule="evenodd" clip-rule="evenodd" d="M1.66675 12.0833C1.66675 13.464 2.78604 14.5833 4.16675 14.5833H6.66675V16.8297C6.66675 17.4842 7.38671 17.8833 7.94175 17.5364L12.6667 14.5833H15.8334C17.2141 14.5833 18.3334 13.464 18.3334 12.0833V4.58325C18.3334 3.20254 17.2141 2.08325 15.8334 2.08325H4.16675C2.78604 2.08325 1.66675 3.20254 1.66675 4.58325V12.0833ZM8.33342 15.3262V12.9166H4.16675C3.70651 12.9166 3.33341 12.5435 3.33341 12.0833V4.58325C3.33341 4.12301 3.70651 3.74992 4.16675 3.74992H15.8334C16.2937 3.74992 16.6667 4.12301 16.6667 4.58325V12.0833C16.6667 12.5435 16.2937 12.9166 15.8334 12.9166H12.1888L8.33342 15.3262Z" fill="#667085"/>
</svg>
