<svg width="18" height="12" viewBox="0 0 18 12" fill="none" xmlns="http://www.w3.org/2000/svg">
<path fill-rule="evenodd" clip-rule="evenodd" d="M16.667 0.666687H15.667C15.1147 0.666687 14.667 1.1144 14.667 1.66669V10.3334C14.667 10.8856 15.1147 11.3334 15.667 11.3334H16.667C17.2193 11.3334 17.667 10.8856 17.667 10.3334V1.66669C17.667 1.1144 17.2193 0.666687 16.667 0.666687ZM11.0003 3.00002H12.0003C12.5526 3.00002 13.0003 3.44774 13.0003 4.00002V10.3334C13.0003 10.8856 12.5526 11.3334 12.0003 11.3334H11.0003C10.448 11.3334 10.0003 10.8856 10.0003 10.3334V4.00002C10.0003 3.44774 10.448 3.00002 11.0003 3.00002ZM7.33366 5.33335H6.33366C5.78137 5.33335 5.33366 5.78107 5.33366 6.33335V10.3334C5.33366 10.8856 5.78137 11.3334 6.33366 11.3334H7.33366C7.88594 11.3334 8.33366 10.8856 8.33366 10.3334V6.33335C8.33366 5.78107 7.88594 5.33335 7.33366 5.33335ZM2.66699 7.33335H1.66699C1.11471 7.33335 0.666992 7.78107 0.666992 8.33335V10.3334C0.666992 10.8856 1.11471 11.3334 1.66699 11.3334H2.66699C3.21928 11.3334 3.66699 10.8856 3.66699 10.3334V8.33335C3.66699 7.78107 3.21928 7.33335 2.66699 7.33335Z" fill="black"/>
</svg>
