<svg width="18" height="12" viewBox="0 0 18 12" fill="none" xmlns="http://www.w3.org/2000/svg">
<path fill-rule="evenodd" clip-rule="evenodd" d="M16.167 0.666687H15.167C14.6147 0.666687 14.167 1.1144 14.167 1.66669V10.3334C14.167 10.8856 14.6147 11.3334 15.167 11.3334H16.167C16.7193 11.3334 17.167 10.8856 17.167 10.3334V1.66669C17.167 1.1144 16.7193 0.666687 16.167 0.666687ZM10.5003 3.00002H11.5003C12.0526 3.00002 12.5003 3.44774 12.5003 4.00002V10.3334C12.5003 10.8856 12.0526 11.3334 11.5003 11.3334H10.5003C9.94804 11.3334 9.50033 10.8856 9.50033 10.3334V4.00002C9.50033 3.44774 9.94804 3.00002 10.5003 3.00002ZM6.83366 5.33335H5.83366C5.28137 5.33335 4.83366 5.78107 4.83366 6.33335V10.3334C4.83366 10.8856 5.28137 11.3334 5.83366 11.3334H6.83366C7.38594 11.3334 7.83366 10.8856 7.83366 10.3334V6.33335C7.83366 5.78107 7.38594 5.33335 6.83366 5.33335ZM2.16699 7.33335H1.16699C0.614707 7.33335 0.166992 7.78107 0.166992 8.33335V10.3334C0.166992 10.8856 0.614707 11.3334 1.16699 11.3334H2.16699C2.71928 11.3334 3.16699 10.8856 3.16699 10.3334V8.33335C3.16699 7.78107 2.71928 7.33335 2.16699 7.33335Z" fill="black"/>
</svg>
