<svg width="20" height="20" viewBox="0 0 20 20" fill="none" xmlns="http://www.w3.org/2000/svg">
<g clip-path="url(#clip0_393_207354)">
<path fill-rule="evenodd" clip-rule="evenodd" d="M16.6443 15.5495L14.1861 13.0913L12.5643 15.239L11.9751 15.0064L11.9713 15.0049L11.964 15.002L11.9388 14.9918C11.9175 14.9832 11.8872 14.9707 11.8489 14.9546C11.7722 14.9224 11.6629 14.8754 11.5278 14.8145C11.2581 14.693 10.8834 14.5151 10.459 14.2875C9.62205 13.8387 8.54176 13.1705 7.70099 12.3297C6.86021 11.489 6.19201 10.4086 5.74313 9.57161C5.51552 9.14718 5.33755 8.77248 5.21599 8.50275C5.15512 8.36767 5.10814 8.25837 5.07591 8.18165C5.0598 8.14328 5.04735 8.11302 5.03868 8.09172L5.02852 8.06657L5.02559 8.05923L5.02434 8.05607L4.79146 7.46621L6.9392 5.84439L4.48104 3.38623C3.99362 4.18273 3.36654 5.53723 3.36253 7.22137C3.35837 8.96789 4.02334 11.1781 6.43797 13.5927C8.85262 16.0074 11.0628 16.6723 12.8093 16.6681C14.4934 16.6641 15.8478 16.0369 16.6443 15.5495ZM6.82718 8.01745L7.94356 7.17444C8.75121 6.56456 8.83334 5.38151 8.11771 4.66588L5.58762 2.13579C4.92966 1.47783 3.74215 1.44545 3.15584 2.36218C2.56243 3.29004 1.70112 5.0114 1.69587 7.2174C1.69055 9.45346 2.5655 12.0773 5.25946 14.7713C7.95344 17.4652 10.5773 18.3401 12.8133 18.3348C15.0193 18.3295 16.7406 17.4681 17.6684 16.8746C18.5851 16.2883 18.5527 15.1008 17.8947 14.4429L15.3646 11.9128C14.649 11.1972 13.4659 11.2793 12.856 12.0869L12.013 13.2033C11.7974 13.1023 11.5346 12.9731 11.2467 12.8187C10.4664 12.4002 9.55127 11.823 8.8795 11.1512C8.20772 10.4794 7.63041 9.56428 7.21191 8.78392C7.05745 8.4959 6.92821 8.23305 6.82718 8.01745Z" fill="#667085"/>
</g>
<defs>
<clipPath id="clip0_393_207354">
<rect width="20" height="20" fill="white"/>
</clipPath>
</defs>
</svg>
