<svg width="149" height="28" viewBox="0 0 149 28" fill="none" xmlns="http://www.w3.org/2000/svg">
<circle cx="14.9297" cy="14" r="14" fill="white"/>
<circle cx="14.9297" cy="14" r="13.5" stroke="black" stroke-opacity="0.2"/>
<path d="M21.1368 10.9831C20.7178 11.1693 20.2755 11.2857 19.8099 11.3556C20.2755 11.0762 20.648 10.6339 20.8109 10.0985C20.3686 10.3546 19.8798 10.5408 19.3443 10.6572C18.9253 10.2149 18.3201 9.93555 17.6682 9.93555C16.4112 9.93555 15.3869 10.9598 15.3869 12.2169C15.3869 12.4031 15.4102 12.5661 15.4567 12.729C13.5711 12.6359 11.8718 11.728 10.7311 10.3313C10.5449 10.6805 10.4285 11.0529 10.4285 11.472C10.4285 12.2634 10.8242 12.9618 11.4527 13.3808C11.0803 13.3576 10.7311 13.2644 10.4052 13.1015V13.1248C10.4052 14.2422 11.1967 15.1733 12.2442 15.3828C12.058 15.4294 11.8485 15.4527 11.639 15.4527C11.4993 15.4527 11.3364 15.4294 11.1967 15.4061C11.4993 16.314 12.3373 16.9891 13.3383 16.9891C12.5469 17.5943 11.5691 17.9668 10.4983 17.9668C10.3121 17.9668 10.1258 17.9668 9.96289 17.9435C10.9872 18.5953 12.1744 18.9678 13.478 18.9678C17.6915 18.9678 19.9961 15.476 19.9961 12.4497C19.9961 12.3566 19.9961 12.2402 19.9961 12.1471C20.4384 11.8444 20.8342 11.4487 21.1368 10.9831Z" fill="black"/>
<circle cx="54.9297" cy="14" r="14" fill="black"/>
<path d="M53.6384 20.3038V14.7503H51.7695V12.5859H53.6384V10.9898C53.6384 9.13752 54.7697 8.12891 56.4221 8.12891C57.2136 8.12891 57.8939 8.18784 58.0921 8.21417V10.1499L56.9461 10.1505C56.0474 10.1505 55.8734 10.5775 55.8734 11.2041V12.5859H58.0167L57.7376 14.7503H55.8734V20.3038H53.6384Z" fill="white"/>
<circle cx="94.9297" cy="14" r="14" fill="white"/>
<circle cx="94.9297" cy="14" r="13.5" stroke="black" stroke-opacity="0.2"/>
<path d="M94.9304 8.44721C96.7392 8.44721 96.9533 8.45398 97.6679 8.48656C98.0975 8.49182 98.523 8.5707 98.9259 8.71979C99.2181 8.83248 99.4835 9.00511 99.705 9.22656C99.9264 9.44802 100.099 9.71339 100.212 10.0056C100.361 10.4085 100.44 10.8341 100.445 11.2637C100.477 11.9782 100.484 12.1924 100.484 14.0011C100.484 15.8098 100.478 16.024 100.445 16.7385C100.44 17.1681 100.361 17.5936 100.212 17.9966C100.099 18.2888 99.9264 18.5541 99.705 18.7756C99.4835 18.997 99.2181 19.1697 98.9259 19.2824C98.523 19.4315 98.0975 19.5103 97.6679 19.5156C96.9537 19.5479 96.7395 19.5549 94.9304 19.5549C93.1214 19.5549 92.9072 19.5482 92.193 19.5156C91.7634 19.5103 91.3379 19.4315 90.935 19.2824C90.6428 19.1697 90.3774 18.997 90.1559 18.7756C89.9345 18.5541 89.7618 18.2888 89.6492 17.9966C89.5001 17.5936 89.4212 17.1681 89.4159 16.7385C89.3837 16.024 89.3766 15.8098 89.3766 14.0011C89.3766 12.1924 89.3833 11.9782 89.4159 11.2637C89.4212 10.8341 89.5001 10.4085 89.6492 10.0056C89.7618 9.71339 89.9345 9.44802 90.1559 9.22656C90.3774 9.00511 90.6428 8.83248 90.935 8.71979C91.3379 8.5707 91.7634 8.49182 92.193 8.48656C92.9075 8.4543 93.1217 8.44721 94.9304 8.44721ZM94.9304 7.22656C93.0917 7.22656 92.8601 7.2343 92.1375 7.26721C91.5753 7.27839 91.019 7.38485 90.4924 7.58205C90.0406 7.75226 89.6314 8.019 89.2933 8.36366C88.9484 8.70184 88.6814 9.11127 88.5111 9.56334C88.3139 10.09 88.2074 10.6463 88.1963 11.2085C88.164 11.9304 88.1562 12.162 88.1562 14.0008C88.1562 15.8395 88.164 16.0711 88.1969 16.7937C88.2081 17.3559 88.3145 17.9122 88.5117 18.4388C88.6819 18.8908 88.9486 19.3002 89.2933 19.6385C89.6316 19.9832 90.041 20.25 90.493 20.4201C91.0197 20.6173 91.5759 20.7238 92.1382 20.7349C92.8608 20.7672 93.0914 20.7756 94.9311 20.7756C96.7708 20.7756 97.0014 20.7679 97.724 20.7349C98.2862 20.7238 98.8425 20.6173 99.3692 20.4201C99.819 20.2457 100.228 19.9794 100.569 19.6381C100.91 19.2968 101.176 18.8882 101.35 18.4382C101.547 17.9115 101.653 17.3553 101.665 16.793C101.697 16.0711 101.705 15.8395 101.705 14.0008C101.705 12.162 101.697 11.9304 101.664 11.2079C101.653 10.6456 101.546 10.0893 101.349 9.56269C101.179 9.11068 100.912 8.70126 100.568 8.36301C100.229 8.01828 99.8199 7.75153 99.3679 7.5814C98.8412 7.3842 98.2849 7.27775 97.7227 7.26656C97.0008 7.2343 96.7692 7.22656 94.9304 7.22656Z" fill="black"/>
<path d="M94.9318 10.5234C94.2438 10.5234 93.5712 10.7275 92.9992 11.1097C92.4271 11.492 91.9812 12.0353 91.7179 12.6709C91.4546 13.3066 91.3857 14.006 91.52 14.6808C91.6542 15.3556 91.9855 15.9755 92.472 16.462C92.9585 16.9485 93.5784 17.2798 94.2532 17.414C94.928 17.5482 95.6274 17.4794 96.2631 17.2161C96.8987 16.9528 97.442 16.5069 97.8243 15.9348C98.2065 15.3627 98.4105 14.6902 98.4105 14.0021C98.4105 13.0795 98.044 12.1947 97.3917 11.5423C96.7393 10.8899 95.8544 10.5234 94.9318 10.5234ZM94.9318 16.2602C94.4852 16.2602 94.0487 16.1278 93.6773 15.8797C93.306 15.6315 93.0166 15.2789 92.8457 14.8663C92.6747 14.4537 92.63 13.9996 92.7172 13.5616C92.8043 13.1236 93.0193 12.7213 93.3351 12.4055C93.6509 12.0897 94.0533 11.8746 94.4913 11.7875C94.9293 11.7003 95.3834 11.7451 95.796 11.916C96.2086 12.0869 96.5612 12.3763 96.8093 12.7476C97.0575 13.119 97.1899 13.5555 97.1899 14.0021C97.1899 14.601 96.952 15.1754 96.5285 15.5988C96.1051 16.0223 95.5307 16.2602 94.9318 16.2602Z" fill="black"/>
<path d="M98.5473 11.1981C98.9962 11.1981 99.3602 10.8341 99.3602 10.3852C99.3602 9.93621 98.9962 9.57227 98.5473 9.57227C98.0983 9.57227 97.7344 9.93621 97.7344 10.3852C97.7344 10.8341 98.0983 11.1981 98.5473 11.1981Z" fill="black"/>
<circle cx="134.93" cy="14" r="14" fill="white"/>
<circle cx="134.93" cy="14" r="13.5" stroke="black" stroke-opacity="0.2"/>
<path fill-rule="evenodd" clip-rule="evenodd" d="M135.537 7.22656C131.946 7.22656 129.057 10.1155 129.057 13.7065C129.057 16.5684 130.92 18.9984 133.485 19.8624C133.809 19.9164 133.917 19.7274 133.917 19.5384C133.917 19.3764 133.917 18.9714 133.917 18.4314C132.108 18.8364 131.73 17.5674 131.73 17.5674C131.433 16.8114 131.001 16.6224 131.001 16.6224C130.407 16.2174 131.055 16.2174 131.055 16.2174C131.703 16.2714 132.054 16.8924 132.054 16.8924C132.621 17.8914 133.566 17.5944 133.944 17.4324C133.998 17.0004 134.16 16.7304 134.349 16.5684C132.918 16.4064 131.406 15.8394 131.406 13.3555C131.406 12.6535 131.649 12.0595 132.081 11.6275C132.027 11.4655 131.784 10.8175 132.135 9.89952C132.135 9.89952 132.675 9.73752 133.917 10.5745C134.43 10.4395 134.997 10.3585 135.537 10.3585C136.077 10.3585 136.644 10.4395 137.157 10.5745C138.398 9.73752 138.938 9.89952 138.938 9.89952C139.289 10.7905 139.073 11.4385 138.992 11.6275C139.397 12.0865 139.667 12.6535 139.667 13.3555C139.667 15.8394 138.155 16.3794 136.698 16.5414C136.941 16.7304 137.13 17.1354 137.13 17.7294C137.13 18.5934 137.13 19.2954 137.13 19.5114C137.13 19.6734 137.238 19.8894 137.589 19.8354C140.153 18.9984 142.016 16.5684 142.016 13.7065C142.016 10.1155 139.127 7.22656 135.537 7.22656Z" fill="black"/>
</svg>
