<svg width="20" height="20" viewBox="0 0 20 20" fill="none" xmlns="http://www.w3.org/2000/svg">
<path d="M8.33317 8.12508C8.79341 8.12508 9.1665 8.49818 9.1665 8.95842V13.9584C9.1665 14.4187 8.79341 14.7917 8.33317 14.7917C7.87293 14.7917 7.49984 14.4187 7.49984 13.9584V8.95842C7.49984 8.49818 7.87293 8.12508 8.33317 8.12508Z" fill="#667085"/>
<path d="M12.4998 8.95842C12.4998 8.49818 12.1267 8.12508 11.6665 8.12508C11.2063 8.12508 10.8332 8.49818 10.8332 8.95842V13.9584C10.8332 14.4187 11.2063 14.7917 11.6665 14.7917C12.1267 14.7917 12.4998 14.4187 12.4998 13.9584V8.95842Z" fill="#667085"/>
<path fill-rule="evenodd" clip-rule="evenodd" d="M14.9998 5.00008V4.16675C14.9998 2.78604 13.8805 1.66675 12.4998 1.66675H7.49984C6.11913 1.66675 4.99984 2.78604 4.99984 4.16675V5.00008H3.74984C3.2896 5.00008 2.9165 5.37318 2.9165 5.83341C2.9165 6.29365 3.2896 6.66675 3.74984 6.66675H4.1665V15.8334C4.1665 17.2141 5.28579 18.3334 6.6665 18.3334H13.3332C14.7139 18.3334 15.8332 17.2141 15.8332 15.8334V6.66675H16.2498C16.7101 6.66675 17.0832 6.29365 17.0832 5.83341C17.0832 5.37318 16.7101 5.00008 16.2498 5.00008H14.9998ZM12.4998 3.33341H7.49984C7.0396 3.33341 6.6665 3.70651 6.6665 4.16675V5.00008H13.3332V4.16675C13.3332 3.70651 12.9601 3.33341 12.4998 3.33341ZM14.1665 6.66675H5.83317V15.8334C5.83317 16.2937 6.20627 16.6667 6.6665 16.6667H13.3332C13.7934 16.6667 14.1665 16.2937 14.1665 15.8334V6.66675Z" fill="#667085"/>
</svg>
