<svg width="20" height="20" viewBox="0 0 20 20" fill="none" xmlns="http://www.w3.org/2000/svg">
<path d="M8.33317 8.125C8.79341 8.125 9.1665 8.4981 9.1665 8.95833V13.9583C9.1665 14.4186 8.79341 14.7917 8.33317 14.7917C7.87293 14.7917 7.49984 14.4186 7.49984 13.9583V8.95833C7.49984 8.4981 7.87293 8.125 8.33317 8.125Z" fill="#667085"/>
<path d="M12.4998 8.95833C12.4998 8.4981 12.1267 8.125 11.6665 8.125C11.2063 8.125 10.8332 8.4981 10.8332 8.95833V13.9583C10.8332 14.4186 11.2063 14.7917 11.6665 14.7917C12.1267 14.7917 12.4998 14.4186 12.4998 13.9583V8.95833Z" fill="#667085"/>
<path fill-rule="evenodd" clip-rule="evenodd" d="M14.9998 5V4.16667C14.9998 2.78595 13.8805 1.66667 12.4998 1.66667H7.49984C6.11913 1.66667 4.99984 2.78595 4.99984 4.16667V5H3.74984C3.2896 5 2.9165 5.3731 2.9165 5.83333C2.9165 6.29357 3.2896 6.66667 3.74984 6.66667H4.1665V15.8333C4.1665 17.214 5.28579 18.3333 6.6665 18.3333H13.3332C14.7139 18.3333 15.8332 17.214 15.8332 15.8333V6.66667H16.2498C16.7101 6.66667 17.0832 6.29357 17.0832 5.83333C17.0832 5.3731 16.7101 5 16.2498 5H14.9998ZM12.4998 3.33333H7.49984C7.0396 3.33333 6.6665 3.70643 6.6665 4.16667V5H13.3332V4.16667C13.3332 3.70643 12.9601 3.33333 12.4998 3.33333ZM14.1665 6.66667H5.83317V15.8333C5.83317 16.2936 6.20627 16.6667 6.6665 16.6667H13.3332C13.7934 16.6667 14.1665 16.2936 14.1665 15.8333V6.66667Z" fill="#667085"/>
</svg>
