<svg width="9" height="11" viewBox="0 0 9 11" fill="none" xmlns="http://www.w3.org/2000/svg">
<path d="M8.6625 1.57143C8.84888 1.57143 9 1.4395 9 1.27679V0.294643C9 0.131926 8.84888 0 8.6625 0H0.3375C0.151116 0 0 0.131926 0 0.294643V1.39337C0 1.55608 0.151116 1.68801 0.3375 1.68801H2.736C3.50404 1.68801 4.09334 1.93251 4.45078 2.35714H0.3375C0.151116 2.35714 0 2.48907 0 2.65179V3.63393C0 3.79664 0.151116 3.92857 0.3375 3.92857H4.80254C4.62769 4.81461 3.87551 5.3682 2.7 5.3682H0.3375C0.151116 5.3682 0 5.50012 0 5.66284V6.96447C0 7.0467 0.039375 7.1252 0.108591 7.18099L4.75068 10.9219C4.81302 10.9721 4.89475 11 4.97959 11H7.30164C7.60888 11 7.75631 10.6708 7.53055 10.4888L3.287 7.06912C5.43853 7.01167 6.97542 5.75808 7.17719 3.92857H8.6625C8.84888 3.92857 9 3.79664 9 3.63393V2.65179C9 2.48907 8.84888 2.35714 8.6625 2.35714H7.01184C6.9138 2.07377 6.77897 1.81092 6.61101 1.57143H8.6625Z" fill="black"/>
</svg>
