<svg width="42" height="22" viewBox="0 0 42 22" fill="none" xmlns="http://www.w3.org/2000/svg">
<path d="M40.95 15.0612H39.9V10.4359C39.9 9.89247 39.5653 9.37046 38.9747 8.98537L32.4187 4.7109C31.8281 4.32581 31.0275 4.1076 30.1941 4.1076H27.3V2.0538C27.3 0.919931 25.8891 0 24.15 0H3.15C1.41094 0 0 0.919931 0 2.0538V15.7458C0 16.8797 1.41094 17.7996 3.15 17.7996H4.2C4.2 20.0673 7.02187 21.9072 10.5 21.9072C13.9781 21.9072 16.8 20.0673 16.8 17.7996H25.2C25.2 20.0673 28.0219 21.9072 31.5 21.9072C34.9781 21.9072 37.8 20.0673 37.8 17.7996H40.95C41.5275 17.7996 42 17.4915 42 17.115V15.7458C42 15.3693 41.5275 15.0612 40.95 15.0612ZM10.5 19.8534C8.76094 19.8534 7.35 18.9335 7.35 17.7996C7.35 16.6657 8.76094 15.7458 10.5 15.7458C12.2391 15.7458 13.65 16.6657 13.65 17.7996C13.65 18.9335 12.2391 19.8534 10.5 19.8534ZM31.5 19.8534C29.7609 19.8534 28.35 18.9335 28.35 17.7996C28.35 16.6657 29.7609 15.7458 31.5 15.7458C33.2391 15.7458 34.65 16.6657 34.65 17.7996C34.65 18.9335 33.2391 19.8534 31.5 19.8534ZM36.75 10.9536H27.3V6.1614H30.1941L36.75 10.4359V10.9536Z" fill="black"/>
</svg>
