<svg width="16" height="12" viewBox="0 0 16 12" fill="none" xmlns="http://www.w3.org/2000/svg">
<path fill-rule="evenodd" clip-rule="evenodd" d="M7.82997 2.60802C10.0459 2.60811 12.177 3.45955 13.783 4.98635C13.9039 5.10422 14.0972 5.10274 14.2163 4.98302L15.3723 3.81635C15.4326 3.75563 15.4662 3.67338 15.4657 3.58779C15.4652 3.50221 15.4306 3.42036 15.3696 3.36035C11.1545 -0.679198 4.50473 -0.679198 0.289632 3.36035C0.228573 3.42032 0.193929 3.50215 0.193366 3.58773C0.192803 3.67331 0.226368 3.75558 0.286632 3.81635L1.44297 4.98302C1.56199 5.10292 1.75544 5.10441 1.8763 4.98635C3.48245 3.45945 5.61385 2.60801 7.82997 2.60802ZM7.82997 6.40368C9.04745 6.40361 10.2215 6.85614 11.124 7.67335C11.246 7.78933 11.4383 7.78682 11.5573 7.66768L12.712 6.50102C12.7728 6.43982 12.8065 6.3568 12.8056 6.27054C12.8048 6.18427 12.7693 6.10196 12.7073 6.04202C9.9591 3.48563 5.70316 3.48563 2.95497 6.04202C2.89289 6.10196 2.85747 6.18432 2.85665 6.27061C2.85584 6.3569 2.8897 6.43991 2.95063 6.50102L4.10497 7.66768C4.22395 7.78682 4.41624 7.78933 4.5383 7.67335C5.44017 6.85668 6.61328 6.40419 7.82997 6.40368ZM10.143 8.9575C10.1447 9.04401 10.1107 9.12741 10.049 9.18802L8.05163 11.2037C7.99308 11.2629 7.91326 11.2963 7.82997 11.2963C7.74667 11.2963 7.66685 11.2629 7.6083 11.2037L5.61063 9.18802C5.54892 9.12736 5.51497 9.04394 5.5168 8.95743C5.51863 8.87092 5.55608 8.789 5.6203 8.73102C6.89587 7.65213 8.76406 7.65213 10.0396 8.73102C10.1038 8.78905 10.1412 8.87099 10.143 8.9575Z" fill="black"/>
</svg>
